<svg width="73" height="18" viewBox="0 0 73 18" fill="none" xmlns="http://www.w3.org/2000/svg">
<g id="Group 114">
<g id="Group 106">
<path id="Vector" d="M56.2557 5H52.6034C52.3886 5 52.1738 5.21053 52.0664 5.42105L50.5625 14.6842C50.5625 14.8947 50.6699 15 50.8848 15H52.8183C53.0331 15 53.1405 14.8947 53.1405 14.6842L53.5702 12.0526C53.5702 11.8421 53.785 11.6316 54.1073 11.6316H55.2889C57.7595 11.6316 59.156 10.4737 59.4782 8.15789C59.6931 7.21053 59.4782 6.36842 59.0485 5.84211C58.404 5.31579 57.4373 5 56.2557 5ZM56.6853 8.47368C56.4705 9.73684 55.5037 9.73684 54.537 9.73684H53.8925L54.3221 7.31579C54.3221 7.21053 54.4296 7.10526 54.6444 7.10526H54.8592C55.5037 7.10526 56.1483 7.10526 56.4705 7.52631C56.6853 7.63158 56.6853 7.94737 56.6853 8.47368Z" fill="#139AD6"/>
<g id="Group">
<path id="Vector_2" d="M28.2197 4.6001H24.334C24.1054 4.6001 23.8769 4.82867 23.7626 5.05724L22.1626 15.1144C22.1626 15.3429 22.2769 15.4572 22.5055 15.4572H24.334C24.5626 15.4572 24.7912 15.2286 24.9054 15.0001L25.3626 12.2572C25.3626 12.0286 25.5912 11.8001 25.934 11.8001H27.1912C29.8197 11.8001 31.3054 10.5429 31.6483 8.02866C31.8769 7.00009 31.6483 6.08581 31.1911 5.51438C30.5054 4.94296 29.5911 4.6001 28.2197 4.6001ZM28.6769 8.37152C28.4483 9.74294 27.4197 9.74294 26.3912 9.74294H25.8197L26.2769 7.11438C26.2769 7.00009 26.3912 6.88581 26.6197 6.88581H26.8483C27.534 6.88581 28.2197 6.8858 28.5626 7.34295C28.6769 7.45723 28.7912 7.80009 28.6769 8.37152Z" fill="#263B80"/>
<path id="Vector_3" d="M39.9912 8.25738H38.1626C38.0483 8.25738 37.8198 8.37166 37.8198 8.48595L37.7055 9.05738L37.5912 8.82881C37.1341 8.25738 36.3341 8.02881 35.4198 8.02881C33.3626 8.02881 31.5341 9.62881 31.1912 11.8002C30.9627 12.9431 31.3055 13.9717 31.8769 14.6574C32.4484 15.3431 33.2484 15.5716 34.2769 15.5716C35.9912 15.5716 36.9055 14.5431 36.9055 14.5431L36.7912 15.1145C36.7912 15.3431 36.9055 15.4574 37.1341 15.4574H38.8483C39.0769 15.4574 39.3055 15.2288 39.4198 15.0002L40.4483 8.60024C40.3341 8.48595 40.1055 8.25738 39.9912 8.25738ZM37.3626 11.9145C37.1341 12.9431 36.3341 13.7431 35.1912 13.7431C34.6198 13.7431 34.1626 13.5145 33.9341 13.2859C33.7055 12.9431 33.5912 12.4859 33.5912 11.9145C33.7055 10.8859 34.6198 10.0859 35.6484 10.0859C36.2198 10.0859 36.5626 10.3145 36.9055 10.5431C37.2483 10.8859 37.3626 11.4574 37.3626 11.9145Z" fill="#263B80"/>
</g>
<path id="Vector_4" d="M68.0725 8.24243H66.1123C65.9898 8.24243 65.7448 8.36364 65.7448 8.48485L65.6223 9.09091L65.4998 8.84849C65.0097 8.24243 64.1522 8 63.1721 8C60.9669 8 59.0068 9.69697 58.6392 12C58.3942 13.2121 58.7618 14.303 59.3743 15.0303C59.9868 15.7576 60.8444 16 61.947 16C63.7846 16 64.7647 14.9091 64.7647 14.9091L64.6422 15.5151C64.6422 15.7576 64.7647 15.8788 65.0097 15.8788H66.8474C67.0924 15.8788 67.3374 15.6364 67.4599 15.3939L68.5625 8.60606C68.44 8.48485 68.3175 8.24243 68.0725 8.24243ZM65.2547 12.1212C65.0097 13.2121 64.1522 14.0606 62.9271 14.0606C62.3145 14.0606 61.8245 13.8182 61.5795 13.5758C61.3344 13.2121 61.2119 12.7273 61.2119 12.1212C61.3345 11.0303 62.3145 10.1818 63.4171 10.1818C64.0297 10.1818 64.3972 10.4242 64.7647 10.6667C65.2547 11.0303 65.3773 11.6364 65.2547 12.1212Z" fill="#139AD6"/>
<path id="Vector_5" d="M50.2762 8H48.3524C48.1261 8 48.0129 8.11494 47.8997 8.22988L45.4101 12.1379L44.2785 8.45977C44.1653 8.22988 44.0521 8.11494 43.7126 8.11494H41.902C41.6757 8.11494 41.5625 8.34483 41.5625 8.57471L43.5995 14.6667L41.6757 17.4253C41.5625 17.6552 41.6757 18 41.902 18H43.7126C43.939 18 44.0521 17.8851 44.1653 17.7701L50.3894 8.68966C50.7289 8.34483 50.5025 8 50.2762 8Z" fill="#263B80"/>
<path id="Vector_6" d="M70.1181 5.27587L68.5625 15.6541C68.5625 15.8847 68.6736 16 68.8958 16H70.4514C70.6736 16 70.8958 15.7694 71.0069 15.5387L72.5625 5.39118C72.5625 5.16055 72.4514 5.04524 72.2292 5.04524H70.4514C70.3403 4.92992 70.2292 5.04524 70.1181 5.27587Z" fill="#139AD6"/>
<path id="Vector_7" d="M13.6263 1.35211C12.8311 0.450703 11.3543 0 9.30956 0H3.62965C3.28886 0 2.94806 0.338026 2.83446 0.676055L0.5625 15.4366C0.5625 15.7746 0.789696 16 1.01689 16H4.53844L5.44722 10.4789V10.7042C5.56082 10.3662 5.90161 10.0282 6.24241 10.0282H7.94638C11.2407 10.0282 13.7399 8.67605 14.5351 4.95775C14.5351 4.84507 14.5351 4.73239 14.5351 4.61972C14.4215 4.61972 14.4215 4.61972 14.5351 4.61972C14.6487 3.15493 14.4215 2.25352 13.6263 1.35211Z" fill="#263B80"/>
<path id="Vector_8" d="M14.2745 4C14.2745 4.11765 14.2745 4.2353 14.2745 4.35294C13.5191 8.35294 11.1451 9.64706 8.01564 9.64706H6.39698C6.07325 9.64706 5.74952 10 5.64161 10.3529L4.5625 17.5294C4.5625 17.7647 4.67041 18 4.99414 18H7.79982C8.12355 18 8.44729 17.7647 8.44729 17.4118V17.2941L8.98684 13.6471V13.4118C8.98684 13.0588 9.31057 12.8235 9.63431 12.8235H10.0659C12.7637 12.8235 14.9219 11.6471 15.4615 8.11765C15.6773 6.70588 15.5694 5.41176 14.9219 4.58824C14.814 4.35294 14.5982 4.11765 14.2745 4Z" fill="#139AD6"/>
<path id="Vector_9" d="M13.5625 4.35C13.4514 4.35 13.3403 4.23333 13.2292 4.23333C13.1181 4.23333 13.0069 4.23333 12.8958 4.11666C12.4514 4 12.0069 4 11.4514 4H7.11806C7.00694 4 6.89583 4 6.78472 4.11666C6.5625 4.23333 6.45139 4.46666 6.45139 4.7L5.5625 10.7667V11C5.67361 10.65 6.00694 10.3 6.34028 10.3H8.00694C11.2292 10.3 13.6736 8.9 14.4514 5.05C14.4514 4.93333 14.4514 4.81666 14.5625 4.7C14.3403 4.58333 14.2292 4.46667 14.0069 4.46667C13.6736 4.35 13.6736 4.35 13.5625 4.35Z" fill="#232C65"/>
</g>
</g>
</svg>
