<svg width="23" height="23" viewBox="0 0 23 23" fill="none" xmlns="http://www.w3.org/2000/svg">
<g id="icn bxs-star">
<path id="Vector" d="M20.1569 8.41927C20.0993 8.24946 19.9932 8.10025 19.8517 7.99006C19.7102 7.87987 19.5395 7.81353 19.3608 7.79922L14.1316 7.38371L11.8688 2.3747C11.7967 2.21337 11.6795 2.07634 11.5313 1.98016C11.3831 1.88397 11.2102 1.83274 11.0335 1.83264C10.8568 1.83254 10.6839 1.88359 10.5355 1.97961C10.3872 2.07563 10.2698 2.21253 10.1976 2.37378L7.93479 7.38371L2.70564 7.79922C2.52995 7.81314 2.36198 7.87738 2.22185 7.98425C2.08171 8.09113 1.97533 8.23612 1.91543 8.40187C1.85554 8.56762 1.84466 8.74712 1.88411 8.91889C1.92356 9.09066 2.01166 9.24743 2.13787 9.37044L6.00218 13.1375L4.6355 19.0555C4.594 19.2347 4.6073 19.4221 4.67367 19.5936C4.74004 19.7651 4.85643 19.9127 5.00771 20.0172C5.159 20.1217 5.33821 20.1783 5.52208 20.1797C5.70595 20.1811 5.886 20.1272 6.03887 20.025L11.0332 16.6955L16.0275 20.025C16.1838 20.1288 16.368 20.1822 16.5555 20.1781C16.743 20.1739 16.9248 20.1125 17.0763 20.002C17.2278 19.8916 17.3419 19.7373 17.4032 19.5601C17.4644 19.3828 17.47 19.1911 17.419 19.0106L15.7414 13.1403L19.9019 9.39612C20.1744 9.15031 20.2743 8.7669 20.1569 8.41927Z" fill="#F3CD03"/>
</g>
</svg>
