<svg width="61" height="22" viewBox="0 0 61 22" fill="none" xmlns="http://www.w3.org/2000/svg">
<g id="primary 1" clip-path="url(#clip0_5614_7287)">
<g id="Logo/medium/primary zip">
<g id="Logo/item/zip/no divider">
<g id="Asset 1">
<g id="Logo/icon/colour primary">
<path id="Shape" d="M21.615 8.36418L16.7325 12.5733H4.63981C3.51186 12.5718 2.42233 12.9659 1.57666 13.6812L7.67571 8.42207L7.76928 8.34262L15.4106 1.74862C16.6427 0.686493 18.3725 0.334972 19.9483 0.826465C21.5242 1.31796 22.7068 2.5778 23.0506 4.13141C23.3944 5.68503 22.8471 7.29638 21.615 8.35851V8.36418Z" fill="#F15B41"/>
<path id="Oval" d="M4.63973 9.50715C7.20218 9.50715 9.27946 7.51646 9.27946 5.06083C9.27946 2.60519 7.20218 0.614502 4.63973 0.614502C2.07728 0.614502 0 2.60519 0 5.06083C0 7.51646 2.07728 9.50715 4.63973 9.50715Z" fill="#F99D1D"/>
<path id="Shape_2" d="M4.63966 12.5732C3.51171 12.5718 2.42218 12.9659 1.57651 13.6811L1.53742 13.7152C-0.367572 15.3571 -0.522957 18.168 1.19036 19.9936C2.90368 21.8192 5.8369 21.9681 7.74189 20.3262L16.7335 12.5744L4.63966 12.5732Z" fill="#272560"/>
<path id="Shape_3" d="M16.7261 12.5766L7.7335 20.3284C6.882 21.0622 5.77647 21.4667 4.63135 21.4636L18.5052 21.4635C21.1812 21.4226 23.0706 19.4932 23.0706 17.0178C23.0706 14.5424 21.0383 12.6108 18.5052 12.572L16.7261 12.5766Z" fill="#00B6BD"/>
</g>
<g id="Logo/item/zip/text/primary">
<path id="Shape_4" d="M29.7967 17.7467C29.4104 17.7604 29.0367 17.6143 28.7712 17.346C28.5113 17.0751 28.3727 16.7178 28.385 16.3505C28.3814 15.9806 28.4771 15.6159 28.6631 15.2914C28.8265 15.0012 29.0259 14.731 29.2572 14.4866L34.9978 8.28648H29.994C29.5091 8.28648 29.1622 8.12757 28.972 7.812C28.7869 7.49499 28.6946 7.13622 28.7047 6.77335C28.6913 6.42363 28.7968 6.07917 29.0053 5.79146C29.212 5.51918 29.5484 5.36469 29.9001 5.38054H38.7408C39.1146 5.36409 39.4791 5.49453 39.7496 5.74151C40.0004 5.98102 40.1275 6.32157 40.1275 6.75292C40.1381 7.08881 40.0648 7.42228 39.9136 7.72573C39.7686 7.99011 39.5867 8.23449 39.373 8.45221L33.3948 14.8396H39.0593C39.4 14.8315 39.7244 14.9791 39.9326 15.2369C40.1545 15.5252 40.2664 15.8773 40.2499 16.2347C40.2661 16.6071 40.1726 16.9764 39.9802 17.3006C39.7865 17.5969 39.4431 17.7478 38.9606 17.7478L29.7967 17.7467Z" fill="#272560"/>
<path id="Shape_5" d="M43.6838 17.9101C42.1106 17.9101 41.7826 17.1382 41.7826 16.4912V7.04688C41.7826 6.55309 41.9383 6.15352 42.2472 5.85952C42.5562 5.56552 43.0481 5.41569 43.7112 5.41569C44.2696 5.41569 44.7117 5.53715 45.0266 5.77779C45.3415 6.01844 45.5161 6.40666 45.5161 6.90612V16.4413C45.5161 16.96 45.345 17.3414 45.0076 17.5764C44.6701 17.8114 44.2364 17.9101 43.6838 17.9101ZM43.6838 4.40201C43.0707 4.40201 42.568 4.2306 42.1878 3.89233C41.8076 3.55406 41.6091 3.08752 41.6091 2.51428C41.5945 2.00608 41.8035 1.51529 42.1854 1.1612C42.5621 0.808172 43.0671 0.627686 43.6838 0.627686C44.1924 0.628745 44.6867 0.788149 45.0919 1.08174C45.534 1.39277 45.7585 1.87633 45.7585 2.51882C45.7585 3.09206 45.5637 3.55633 45.1799 3.89801C44.7961 4.23969 44.2934 4.40542 43.6838 4.40542V4.40201Z" fill="#272560"/>
<path id="Shape_6" d="M49.618 21.5292C48.147 21.5292 47.8356 20.7448 47.8356 20.0864V6.72687C47.8229 6.30843 47.9914 5.90351 48.3014 5.60762C48.6092 5.31361 49.1023 5.16377 49.7654 5.16377C50.1778 5.15977 50.5852 5.25007 50.9536 5.42713C51.3446 5.61897 51.5478 5.9947 51.5478 6.5339C51.627 6.44687 51.7122 6.35757 51.8033 6.266C52.053 6.02383 52.3323 5.81117 52.635 5.63259C53.371 5.19376 54.2237 4.96676 55.0912 4.97875C55.9225 4.96332 56.746 5.13357 57.4963 5.47594C58.1828 5.7997 58.7806 6.27241 59.2418 6.85628C59.7225 7.48078 60.0734 8.18747 60.2756 8.93814C60.507 9.78636 60.6204 10.66 60.6131 11.5365C60.6216 12.4293 60.491 13.3184 60.2257 14.1746C59.9913 14.9351 59.6065 15.6456 59.0921 16.2678C58.5965 16.854 57.9685 17.3255 57.255 17.647C56.4788 17.987 55.6326 18.1565 54.7787 18.143C54.2069 18.1587 53.6364 18.082 53.0913 17.916C52.6999 17.7892 52.3279 17.6133 51.9851 17.3927C51.7993 17.2722 51.6279 17.1325 51.4741 16.9761V20.0183C51.4741 20.5473 51.3232 20.9378 51.0249 21.1784C50.7267 21.4191 50.268 21.5292 49.618 21.5292ZM54.1406 8.00505C53.7357 7.99569 53.3351 8.08599 52.9773 8.26727C52.6406 8.44966 52.352 8.70321 52.1336 9.00852C51.8883 9.35394 51.7092 9.73832 51.6048 10.1437C51.4818 10.6147 51.4215 11.0987 51.4254 11.5842C51.4254 12.6898 51.663 13.5763 52.1384 14.22C52.6137 14.8636 53.2589 15.1644 54.1453 15.1644C55.0318 15.1644 55.677 14.842 56.125 14.178C56.573 13.5139 56.8118 12.6296 56.8118 11.5842C56.8133 11.1 56.751 10.6175 56.6264 10.1482C56.522 9.7446 56.3469 9.3608 56.1084 9.01306C55.8962 8.70733 55.6111 8.45406 55.2766 8.27408C54.9284 8.09264 54.5372 7.99998 54.1406 8.00505Z" fill="#272560"/>
</g>
</g>
</g>
</g>
</g>
<defs>
<clipPath id="clip0_5614_7287">
<rect width="61" height="21" fill="white" transform="translate(0 0.5)"/>
</clipPath>
</defs>
</svg>
